<svg width="1920" height="317" viewBox="0 0 1920 317" fill="none" xmlns="http://www.w3.org/2000/svg">
<path d="M4469.81 32.1475V316.441L4182.45 284.803L4181.89 284.742V316.441L3894.53 284.803L3893.98 284.742V316.441L3606.61 284.803L3606.06 284.742V316.441L3318.7 284.803L3318.15 284.742V316.441L3030.79 284.803L3030.23 284.742V316.441L2742.87 284.803L2742.31 284.742V285.3L2742.31 316.441L2454.96 284.803L2454.4 284.742V285.3L2454.4 316.441L2167.04 284.803L2166.48 284.742V316.441L1879.12 284.803L1878.57 284.742V316.441L1591.21 284.803L1590.66 284.742V316.441L1303.29 284.803L1302.74 284.742V316.441L1015.38 284.803L1014.82 284.742V316.441L727.463 284.803L726.908 284.742V316.441L439.547 284.803L438.992 284.742V316.441L151.63 284.803L151.075 284.742V316.441L-136.282 284.803L-136.837 284.742V316.441L-424.199 284.803L-424.754 284.742V316.441L-712.116 284.803L-712.671 284.742V316.441L-1000.03 284.803L-1000.58 284.742V316.441L-1287.5 284.852V0.557617L-1000.14 32.1973L-999.583 32.2578V0.557617L-712.226 32.1973L-711.671 32.2578V0.557617L-424.309 32.1973L-423.754 32.2578V0.557617L-136.392 32.1973L-135.837 32.2578V0.557617L151.52 32.1973L152.075 32.2578V0.557617L439.438 32.1973L439.992 32.2578V0.557617L727.354 32.1973L727.908 32.2578V0.557617L1015.27 32.1973L1015.82 32.2578V0.557617L1303.18 32.1973L1303.74 32.2578V0.557617L1591.1 32.1973L1591.66 32.2578V0.557617L1879.01 32.1973L1879.57 32.2578V0.557617L2166.93 32.1973L2167.48 32.2578V0.557617L2454.85 32.1973L2455.4 32.2578V0.557617L2742.76 32.1973L2743.31 32.2578V0.557617L3030.68 32.1973L3031.23 32.2578V0.557617L3318.59 32.1973L3319.15 32.2578V0.557617L3606.5 32.1973L3607.06 32.2578V0.557617L3894.42 32.1973L3894.98 32.2578V0.557617L4182.34 32.1973L4182.89 32.2578V0.557617L4469.81 32.1475Z" fill="#FC6200" stroke="none"/>
</svg>
