<svg width="1200" height="221" viewBox="0 0 1200 221" fill="none" xmlns="http://www.w3.org/2000/svg">
<path d="M3605.39 22.1V221L3404.66 198.9V221L3203.94 198.9V221L3003.22 198.9V221L2802.49 198.9V221L2601.77 198.9V221L2401.05 198.9V221L2200.32 198.9V221L1999.6 198.9V221L1798.88 198.9V221L1598.15 198.9V221L1397.43 198.9V221L1196.71 198.9V221L995.984 198.9V221L795.26 198.9V221L594.535 198.9V221L393.815 198.9V221L193.09 198.9V221L-7.63474 198.9V221L-208.355 198.9V221L-409.08 198.9V0L-208.355 22.1V0L-7.63474 22.1V0L193.09 22.1V0L393.815 22.1V0L594.535 22.1V0L795.26 22.1V0L995.984 22.1V0L1196.71 22.1V0L1397.43 22.1V0L1598.15 22.1V0L1798.88 22.1V0L1999.6 22.1V0L2200.32 22.1V0L2401.05 22.1V0L2601.77 22.1V0L2802.49 22.1V0L3003.22 22.1V0L3203.94 22.1V0L3404.66 22.1V0L3605.39 22.1Z" fill="#FC6200"/>
</svg>
